<svg width="87" height="65" viewBox="0 0 87 65" fill="none" xmlns="http://www.w3.org/2000/svg">
<mask id="path-1-inside-1_4_263" fill="white">
<path fill-rule="evenodd" clip-rule="evenodd" d="M61.3443 16.2545L67.412 10.1869L67.4396 10.1594L67.467 10.1318L67.5812 10.0177L67.5787 10.0152C69.5522 7.89259 69.5058 4.57135 67.4396 2.5051C65.3733 0.438845 62.0521 0.392472 59.9295 2.36598L59.9268 2.36331L53.6899 8.60018L53.6908 8.601L51.4713 10.8205L49.2519 8.6011L49.2529 8.60018L43.016 2.36331L43.0133 2.36598C40.8907 0.392472 37.5695 0.438846 35.5032 2.5051C33.437 4.57135 33.3906 7.8926 35.3641 10.0152L35.3616 10.0177L35.4758 10.1318L35.5032 10.1594L35.5309 10.1869L41.5985 16.2545L41.5996 16.2535L46.1093 20.7631V28.8836V29.084H46.1129C46.2184 31.9804 48.5996 34.296 51.5217 34.296C54.4438 34.296 56.8251 31.9804 56.9305 29.084H56.9342V28.8836V20.6631L61.3435 16.2537L61.3443 16.2545Z"/>
</mask>
<path d="M67.412 10.1869L66.0027 8.76772L65.9978 8.77265L67.412 10.1869ZM61.3443 16.2545L59.9292 17.6679L61.3434 19.0838L62.7585 17.6687L61.3443 16.2545ZM67.4396 10.1594L68.8489 11.5786L68.8588 11.5687L67.4396 10.1594ZM67.467 10.1318L66.0528 8.71762L66.0478 8.72261L67.467 10.1318ZM67.5812 10.0177L68.9954 11.4319L70.4091 10.0182L68.9959 8.60399L67.5812 10.0177ZM67.5787 10.0152L66.114 8.65334L64.8013 10.0652L66.1639 11.4288L67.5787 10.0152ZM67.4396 2.5051L66.0254 3.91931V3.91931L67.4396 2.5051ZM59.9295 2.36598L58.5153 3.78019L59.879 5.14387L61.2913 3.83069L59.9295 2.36598ZM59.9268 2.36331L61.341 0.949093L59.9268 -0.46512L58.5126 0.949093L59.9268 2.36331ZM53.6899 8.60018L52.2757 7.18597L50.8615 8.60018L52.2757 10.0144L53.6899 8.60018ZM53.6908 8.601L55.105 10.0152L56.5192 8.601L55.105 7.18679L53.6908 8.601ZM51.4713 10.8205L50.0571 12.2347L51.4713 13.6489L52.8855 12.2347L51.4713 10.8205ZM49.2519 8.6011L47.8377 7.18689L46.4235 8.6011L47.8377 10.0153L49.2519 8.6011ZM49.2529 8.60018L50.6671 10.0144L52.0813 8.60018L50.6671 7.18597L49.2529 8.60018ZM43.016 2.36331L44.4302 0.949093L43.0159 -0.465247L41.6016 0.949219L43.016 2.36331ZM43.0133 2.36598L41.6515 3.83069L43.064 5.14399L44.4277 3.78007L43.0133 2.36598ZM35.5032 2.5051L34.089 1.09088L35.5032 2.5051ZM35.3641 10.0152L36.7782 11.4295L38.1421 10.0658L36.8288 8.65334L35.3641 10.0152ZM35.3616 10.0177L33.9476 8.60331L32.5331 10.0175L33.9474 11.4319L35.3616 10.0177ZM35.4758 10.1318L36.895 8.72256L36.89 8.71757L35.4758 10.1318ZM35.5032 10.1594L34.084 11.5687L34.094 11.5786L35.5032 10.1594ZM35.5309 10.1869L36.9451 8.7727L36.9401 8.76772L35.5309 10.1869ZM41.5985 16.2545L40.1843 17.6687L41.5988 19.0833L43.013 17.6684L41.5985 16.2545ZM41.5996 16.2535L43.0138 14.8392L41.5993 13.4247L40.1851 14.8396L41.5996 16.2535ZM46.1093 20.7631H48.1093V19.9347L47.5235 19.3489L46.1093 20.7631ZM46.1093 29.084H44.1093V31.084H46.1093V29.084ZM46.1129 29.084L48.1116 29.0113L48.0414 27.084H46.1129V29.084ZM56.9305 29.084V27.084H55.002L54.9318 29.0113L56.9305 29.084ZM56.9342 29.084V31.084H58.9342V29.084H56.9342ZM56.9342 20.6631L55.5199 19.2489L54.9342 19.8347V20.6631H56.9342ZM61.3435 16.2537L62.7586 14.8404L61.3444 13.4245L59.9293 14.8395L61.3435 16.2537ZM65.9978 8.77265L59.9301 14.8403L62.7585 17.6687L68.8262 11.6011L65.9978 8.77265ZM66.0303 8.74032L66.0027 8.76773L68.8212 11.606L68.8489 11.5786L66.0303 8.74032ZM66.0478 8.72261L66.0204 8.75022L68.8588 11.5687L68.8862 11.5411L66.0478 8.72261ZM66.167 8.60344L66.0528 8.71762L68.8812 11.5461L68.9954 11.4319L66.167 8.60344ZM66.1639 11.4288L66.1664 11.4313L68.9959 8.60399L68.9935 8.60151L66.1639 11.4288ZM66.0254 3.91931C67.3278 5.22174 67.3573 7.31607 66.114 8.65334L69.0434 11.377C71.7471 8.46912 71.6839 3.92096 68.8538 1.09088L66.0254 3.91931ZM61.2913 3.83069C62.6286 2.58735 64.7229 2.61688 66.0254 3.91931L68.8538 1.09088C66.0237 -1.73919 61.4756 -1.8024 58.5677 0.901264L61.2913 3.83069ZM58.5126 3.77752L58.5153 3.78019L61.3437 0.951765L61.341 0.949093L58.5126 3.77752ZM55.1042 10.0144L61.341 3.77752L58.5126 0.949093L52.2757 7.18597L55.1042 10.0144ZM55.105 7.18679L55.1042 7.18597L52.2757 10.0144L52.2766 10.0152L55.105 7.18679ZM52.8855 12.2347L55.105 10.0152L52.2766 7.18679L50.0571 9.40624L52.8855 12.2347ZM47.8377 10.0153L50.0571 12.2347L52.8855 9.40625L50.6662 7.18689L47.8377 10.0153ZM50.6662 10.0153L50.6671 10.0144L47.8387 7.18597L47.8377 7.18689L50.6662 10.0153ZM50.6671 7.18597L44.4302 0.949093L41.6018 3.77752L47.8387 10.0144L50.6671 7.18597ZM41.6016 0.949219L41.599 0.951891L44.4277 3.78007L44.4303 3.77739L41.6016 0.949219ZM44.3752 0.901264C41.4673 -1.8024 36.9191 -1.73919 34.089 1.09088L36.9174 3.91931C38.2199 2.61688 40.3142 2.58735 41.6515 3.83069L44.3752 0.901264ZM34.089 1.09088C31.2589 3.92096 31.1957 8.46912 33.8994 11.377L36.8288 8.65334C35.5855 7.31607 35.615 5.22174 36.9174 3.91931L34.089 1.09088ZM33.95 8.60083L33.9476 8.60331L36.7757 11.432L36.7782 11.4295L33.95 8.60083ZM33.9474 11.4319L34.0616 11.546L36.89 8.71757L36.7759 8.60344L33.9474 11.4319ZM34.0566 11.541L34.084 11.5687L36.9224 8.75024L36.895 8.72257L34.0566 11.541ZM34.094 11.5786L34.1217 11.6061L36.9401 8.76772L36.9124 8.74025L34.094 11.5786ZM34.1167 11.6011L40.1843 17.6687L43.0127 14.8403L36.9451 8.7727L34.1167 11.6011ZM43.013 17.6684L43.0141 17.6674L40.1851 14.8396L40.184 14.8406L43.013 17.6684ZM47.5235 19.3489L43.0138 14.8392L40.1854 17.6677L44.6951 22.1774L47.5235 19.3489ZM48.1093 28.8836V20.7631H44.1093V28.8836H48.1093ZM48.1093 29.084V28.8836H44.1093V29.084H48.1093ZM46.1129 27.084H46.1093V31.084H46.1129V27.084ZM51.5217 32.296C49.6798 32.296 48.178 30.836 48.1116 29.0113L44.1142 29.1568C44.2587 33.1247 47.5194 36.296 51.5217 36.296V32.296ZM54.9318 29.0113C54.8654 30.836 53.3636 32.296 51.5217 32.296V36.296C55.524 36.296 58.7847 33.1247 58.9292 29.1568L54.9318 29.0113ZM56.9342 27.084H56.9305V31.084H56.9342V27.084ZM54.9342 28.8836V29.084H58.9342V28.8836H54.9342ZM54.9342 20.6631V28.8836H58.9342V20.6631H54.9342ZM59.9293 14.8395L55.5199 19.2489L58.3484 22.0773L62.7577 17.668L59.9293 14.8395ZM62.7594 14.8412L62.7586 14.8404L59.9284 17.6671L59.9292 17.6679L62.7594 14.8412Z" fill="white" mask="url(#path-1-inside-1_4_263)"/>
<path d="M48.0718 46.6039C49.0356 48.814 50.4856 50.7835 52.3186 52.3629C54.4048 54.1605 56.9173 55.3927 59.6158 55.9417C62.3143 56.4907 65.1085 56.3382 67.7312 55.4986C70.3539 54.6591 72.7173 53.1607 74.5954 51.1467C76.4735 49.1327 77.8034 46.6705 78.4579 43.9956C79.1125 41.3208 79.0697 38.5227 78.3338 35.8691C77.5979 33.2154 76.1934 30.795 74.2547 28.8393C72.316 26.8836 69.9079 25.4581 67.2608 24.699L67.2352 24.6917L67.2162 24.6851L67.2151 24.6847L67.2151 24.6847L67.2067 24.6821C67.1953 24.6785 67.1738 24.6721 67.1432 24.6638C67.0818 24.6471 66.9844 24.6231 66.8576 24.5996C66.6025 24.5523 66.2373 24.5088 65.811 24.5269C64.9792 24.5624 63.9232 24.8293 62.9566 25.7763C62.1721 26.7583 61.8306 27.648 61.7408 28.4157C61.6497 29.195 61.81 29.9145 62.1259 30.5565C62.7816 31.8893 64.0616 32.798 64.8719 33.0303C66.0935 33.3806 67.2048 34.0385 68.0995 34.941C68.9942 35.8436 69.6424 36.9606 69.982 38.1852C70.3216 39.4099 70.3413 40.7012 70.0393 41.9356C69.7372 43.17 69.1235 44.3063 68.2567 45.2358C67.39 46.1652 66.2993 46.8567 65.0889 47.2442C63.8786 47.6316 62.5891 47.702 61.3437 47.4486C60.0984 47.1953 58.9389 46.6266 57.9761 45.797C57.2676 45.1865 56.683 44.4497 56.2505 43.6271L48.0718 46.6039Z" stroke="white" stroke-width="2"/>
<path d="M40.1309 46.6039C39.167 48.814 37.717 50.7835 35.884 52.3629C33.7979 54.1605 31.2853 55.3927 28.5868 55.9417C25.8883 56.4907 23.0941 56.3382 20.4714 55.4986C17.8487 54.6591 15.4853 53.1607 13.6072 51.1467C11.7292 49.1327 10.3992 46.6705 9.7447 43.9956C9.09017 41.3208 9.1329 38.5227 9.86882 35.8691C10.6047 33.2154 12.0092 30.795 13.9479 28.8393C15.8866 26.8836 18.2947 25.4581 20.9418 24.699L20.9675 24.6917L20.9864 24.6851L20.9875 24.6847L20.9875 24.6847L20.9959 24.6821C21.0074 24.6785 21.0288 24.6721 21.0594 24.6638C21.1208 24.6471 21.2182 24.6231 21.345 24.5996C21.6001 24.5523 21.9654 24.5088 22.3917 24.5269C23.2234 24.5624 24.2795 24.8293 25.2461 25.7763C26.0305 26.7583 26.372 27.648 26.4618 28.4157C26.553 29.195 26.3926 29.9145 26.0767 30.5565C25.4211 31.8893 24.1411 32.798 23.3308 33.0303C22.1092 33.3806 20.9978 34.0385 20.1031 34.941C19.2084 35.8436 18.5603 36.9606 18.2207 38.1852C17.881 39.4099 17.8613 40.7012 18.1634 41.9356C18.4654 43.17 19.0792 44.3063 19.9459 45.2358C20.8126 46.1652 21.9033 46.8567 23.1137 47.2442C24.324 47.6316 25.6136 47.702 26.8589 47.4486C28.1043 47.1953 29.2638 46.6266 30.2265 45.797C30.9351 45.1865 31.5196 44.4497 31.9522 43.6271L40.1309 46.6039Z" stroke="white" stroke-width="2"/>
<ellipse cx="36.6844" cy="28.864" rx="5.41244" ry="5.41244" fill="white"/>
<ellipse rx="5.41244" ry="5.41244" transform="matrix(-1 0 0 1 51.5187 43.6981)" fill="white"/>
<ellipse cx="36.6844" cy="43.6981" rx="5.41244" ry="5.41244" fill="white"/>
<ellipse cx="51.5184" cy="28.864" rx="5.41244" ry="5.41244" fill="white"/>
</svg>
